# xmcd
#
# Track frame offsets:
#	150
#	12886
#	23843
#	35491
#	48507
#	60195
#	72817
#	87550
#	99326
#	109345
#	122637
#	137575
#	152817
#	170147
#	183462
#	192807
#	208891
#
# Disc length: 3116 seconds
#
# Revision: 0
# Processed by: cddbd v1.5.2PL0 Copyright (c) Steve Scherf et al.
# Submitted via: EasyCDDAExtractor 12.0.4.1
#
DISCID=e90c2a11
DTITLE=The Wise Guyz -  Stay Cool!!
DYEAR=2012
DGENRE=Rockabilly
TTITLE0=Baby let me rock
TTITLE1=Rude bad boy
TTITLE2=Do the crab bop
TTITLE3=One and only
TTITLE4=Do the stroll
TTITLE5=Take a rest
TTITLE6=Why don´t you dance with me
TTITLE7=Jumpin´ records
TTITLE8=I´m  not crazy
TTITLE9=Blood love and love rock and roll
TTITLE10=Be mine
TTITLE11=Rock it, baby rock it
TTITLE12=Your my girl
TTITLE13=Oh love me baby
TTITLE14=Jukebox jumpin´
TTITLE15=It´s  time to say goodbye
TTITLE16=Stay Cool!!
EXTD=
EXTT0=
EXTT1=
EXTT2=
EXTT3=
EXTT4=
EXTT5=
EXTT6=
EXTT7=
EXTT8=
EXTT9=
EXTT10=
EXTT11=
EXTT12=
EXTT13=
EXTT14=
EXTT15=
EXTT16=
PLAYORDER=
